<svg id="Layer_1" data-name="Layer 1" xmlns="http://www.w3.org/2000/svg" viewBox="0 0 48 48"><defs><style>.cls-1{fill:#687d94;}.cls-2{fill:#fff;}.cls-3{fill:#ffbf8e;}.cls-4{fill:#e79165;}.cls-5{fill:#b5e08c;}</style></defs><title>confirm, smartphone, phone, checkmark, shipping, box, package</title><rect class="cls-1" x="2.46" y="0.5" width="25.46" height="41.13" rx="2.94"/><path class="cls-2" d="M26,3.44V38.69a1,1,0,0,1-1,1H5.4a1,1,0,0,1-1-1V3.44a1,1,0,0,1,1-1h4.89a2,2,0,0,0,2,2h5.87a2,2,0,0,0,1.39-.58,1.91,1.91,0,0,0,.57-1.38H25A1,1,0,0,1,26,3.44Z"/><rect class="cls-3" x="23.02" y="27.92" width="22.52" height="19.58"/><polygon class="cls-4" points="36.73 27.92 36.73 32.81 35.51 31.83 34.28 32.81 33.06 31.83 31.83 32.81 31.83 27.92 36.73 27.92"/><rect class="cls-1" x="25.96" y="42.6" width="1.96" height="2.94"/><polygon class="cls-1" points="28.9 42.6 24.98 42.6 26.94 40.65 28.9 42.6"/><circle class="cls-5" cx="15.19" cy="18.13" r="7.83"/><rect class="cls-2" x="11.21" y="16.48" width="2.08" height="6.23" transform="translate(-10.27 14.4) rotate(-45)"/><rect class="cls-2" x="11.46" y="17.09" width="10.39" height="2.08" transform="translate(-7.94 17.09) rotate(-45)"/></svg>